<svg width="14" height="14" viewBox="0 0 14 14" fill="none" xmlns="http://www.w3.org/2000/svg">
<path d="M10.334 2.00002H13.0007C13.1775 2.00002 13.347 2.07026 13.4721 2.19528C13.5971 2.32031 13.6673 2.48988 13.6673 2.66669V13.3334C13.6673 13.5102 13.5971 13.6797 13.4721 13.8048C13.347 13.9298 13.1775 14 13.0007 14H1.00065C0.82384 14 0.654271 13.9298 0.529246 13.8048C0.404222 13.6797 0.333984 13.5102 0.333984 13.3334V2.66669C0.333984 2.48988 0.404222 2.32031 0.529246 2.19528C0.654271 2.07026 0.82384 2.00002 1.00065 2.00002H3.66732V0.666687H5.00065V2.00002H9.00065V0.666687H10.334V2.00002ZM1.66732 6.00002V12.6667H12.334V6.00002H1.66732ZM3.00065 7.33335H4.33398V8.66669H3.00065V7.33335ZM3.00065 10H4.33398V11.3334H3.00065V10ZM5.66732 7.33335H11.0007V8.66669H5.66732V7.33335ZM5.66732 10H9.00065V11.3334H5.66732V10Z" fill="#006156"/>
</svg>
