<svg width="38" height="16" viewBox="0 0 38 16" fill="none" xmlns="http://www.w3.org/2000/svg">
<path d="M18.9961 15.6985C14.128 15.6985 9.28154 15.6985 4.41337 15.6985C4.21778 15.6985 4.02218 15.6985 3.82659 15.6768C3.1746 15.5681 2.91381 15.1552 3.08767 14.525C3.82659 11.917 4.58724 9.28735 5.32615 6.67941C5.52175 6.00569 5.71735 5.33197 5.89121 4.65825C6.04334 4.11493 6.3476 3.8324 6.93439 3.85413C14.9973 3.85413 23.0384 3.85413 31.1013 3.85413C31.6664 3.85413 31.9489 4.11493 32.1011 4.63652C33.0356 7.89645 33.9701 11.1564 34.8829 14.3946C35.1437 15.2856 34.7742 15.7203 33.7745 15.7203C28.8629 15.6985 23.9295 15.6985 18.9961 15.6985ZM19.0179 10.8087C19.0396 10.8521 19.0396 10.8956 19.0613 10.939C19.7785 10.7 20.5392 10.5696 21.1694 10.2219C22.8211 9.33081 22.9732 7.57045 21.5823 6.35341C20.2349 5.17984 17.5618 5.24504 16.2795 6.48381C15.1711 7.54872 15.1711 8.76576 16.2795 9.83067C17.0619 10.5479 17.9964 10.7869 19.0179 10.8087Z" fill="#006156"/>
<path d="M19.0604 0.333313C24.1677 0.333313 29.2749 0.333313 34.4038 0.333313C35.4905 0.333313 36.3815 0.637573 36.9683 1.61555C37.968 3.26725 36.7945 5.4188 34.8602 5.484C34.3169 5.50574 33.9474 5.22321 33.8822 4.76682C33.8388 4.33216 34.143 3.9627 34.6646 3.85404C35.3601 3.72364 35.6643 3.37591 35.5991 2.83259C35.5557 2.311 35.1862 2.05021 34.5125 2.00674C34.3821 2.00674 34.2517 2.00674 34.143 2.00674C24.0373 2.00674 13.9532 2.00674 3.84742 2.00674C3.58663 2.00674 3.3041 2.02848 3.04331 2.07194C2.60865 2.15887 2.39132 2.4414 2.36959 2.87606C2.34785 3.33245 2.54345 3.63671 2.99984 3.76711C3.13024 3.81057 3.28237 3.83231 3.41277 3.85404C3.86916 3.9627 4.08648 4.26696 4.08648 4.70162C4.08648 5.13628 3.73876 5.44054 3.28237 5.484C2.04359 5.57093 0.804821 4.50602 0.674423 3.28898C0.565759 1.83288 1.52201 0.528909 2.86944 0.376779C3.19544 0.355046 3.52143 0.333313 3.84742 0.333313C8.91118 0.333313 13.9967 0.333313 19.0604 0.333313Z" fill="#006156"/>
</svg>
