<svg width="16" height="16" viewBox="0 0 16 16" fill="none" xmlns="http://www.w3.org/2000/svg">
<path fill-rule="evenodd" clip-rule="evenodd" d="M7.9996 10.7312L4.234 6.96558L5.3652 5.83438L7.9996 8.46878L10.634 5.83438L11.7652 6.96558L7.9996 10.7312ZM7.99961 1.59998C4.46521 1.59998 1.59961 4.46478 1.59961 7.99998C1.59961 11.5344 4.46521 14.4 7.99961 14.4C11.534 14.4 14.3996 11.5344 14.3996 7.99998C14.3996 4.46478 11.534 1.59998 7.99961 1.59998Z" fill="#C0CCDA"/>
<mask id="mask0" style="mask-type:alpha" maskUnits="userSpaceOnUse" x="1" y="1" width="14" height="14">
<path fill-rule="evenodd" clip-rule="evenodd" d="M7.9996 10.7312L4.234 6.96558L5.3652 5.83438L7.9996 8.46878L10.634 5.83438L11.7652 6.96558L7.9996 10.7312ZM7.99961 1.59998C4.46521 1.59998 1.59961 4.46478 1.59961 7.99998C1.59961 11.5344 4.46521 14.4 7.99961 14.4C11.534 14.4 14.3996 11.5344 14.3996 7.99998C14.3996 4.46478 11.534 1.59998 7.99961 1.59998Z" fill="white"/>
</mask>
<g mask="url(#mask0)">
</g>
</svg>
