<svg width="20" height="20" viewBox="0 0 20 20" fill="none" xmlns="http://www.w3.org/2000/svg">
<path d="M15.554 5.2962C18.005 5.2962 20 7.356 20 9.88764V14.9199C20 17.4454 18.01 19.5 15.564 19.5L4.448 19.5C1.996 19.5 0 17.4413 0 14.9096V9.87731C0 7.35187 1.991 5.2962 4.438 5.2962H5.378L15.554 5.2962Z" fill="#C0CCDA"/>
<path d="M10.5459 14.0374L13.4549 11.0695C13.7549 10.7627 13.7549 10.2691 13.4529 9.96338C13.1509 9.65867 12.6639 9.65968 12.3639 9.96541L10.7709 11.5905L10.7709 1.2821C10.7709 0.85042 10.4259 0.5 9.99994 0.5C9.57494 0.5 9.23094 0.85042 9.23094 1.2821L9.23094 11.5905L7.63694 9.96541C7.33694 9.65968 6.84994 9.65867 6.54794 9.96338C6.39694 10.1168 6.32094 10.3168 6.32094 10.518C6.32094 10.717 6.39694 10.9171 6.54594 11.0695L9.45494 14.0374C9.59994 14.1847 9.79594 14.268 9.99994 14.268C10.2049 14.268 10.4009 14.1847 10.5459 14.0374Z" fill="#30324B"/>
</svg>
