<svg width="22" height="22" viewBox="0 0 22 22" fill="none" xmlns="http://www.w3.org/2000/svg">
<path d="M21.5 10.9999C21.5 16.8001 16.7991 21.4999 11 21.4999C5.20085 21.4999 0.5 16.8001 0.5 10.9999C0.5 5.20181 5.20085 0.499908 11 0.499908C16.7991 0.499908 21.5 5.20181 21.5 10.9999Z" fill="#C0CCDA"/>
<path fill-rule="evenodd" clip-rule="evenodd" d="M10.9155 5.74985C12.6054 5.74985 13.9802 7.12467 13.9802 8.81453C13.9802 10.2942 12.9254 11.5329 11.5285 11.8167V12.4922C11.5285 12.8311 11.2545 13.1051 10.9155 13.1051C10.5766 13.1051 10.3026 12.8311 10.3026 12.4922V11.2663C10.3026 10.9273 10.5766 10.6533 10.9155 10.6533C11.9293 10.6533 12.7544 9.82833 12.7544 8.81453C12.7544 7.80073 11.9293 6.97572 10.9155 6.97572C9.90175 6.97572 9.07673 7.80073 9.07673 8.81453C9.07673 9.15349 8.80275 9.42747 8.4638 9.42747C8.12484 9.42747 7.85086 9.15349 7.85086 8.81453C7.85086 7.12467 9.22568 5.74985 10.9155 5.74985ZM10.3026 14.9439C10.3026 14.605 10.5766 14.331 10.9155 14.331C11.2545 14.331 11.5285 14.605 11.5285 14.9439C11.5285 15.2829 11.2545 15.5568 10.9155 15.5568C10.5766 15.5568 10.3026 15.2829 10.3026 14.9439Z" fill="#575A65"/>
<path fill-rule="evenodd" clip-rule="evenodd" d="M7.69336 8.81453C7.69336 7.03768 9.13869 5.59235 10.9155 5.59235C12.6924 5.59235 14.1377 7.03768 14.1377 8.81453C14.1377 10.3257 13.0916 11.5974 11.686 11.9427V12.4922C11.686 12.9181 11.3415 13.2626 10.9155 13.2626C10.4896 13.2626 10.1451 12.9181 10.1451 12.4922V11.2663C10.1451 10.8403 10.4896 10.4958 10.9155 10.4958C11.8424 10.4958 12.5969 9.74135 12.5969 8.81453C12.5969 7.88772 11.8424 7.13322 10.9155 7.13322C9.98873 7.13322 9.23423 7.88772 9.23423 8.81453C9.23423 9.24047 8.88974 9.58497 8.4638 9.58497C8.03786 9.58497 7.69336 9.24047 7.69336 8.81453ZM10.9155 5.90735C9.31266 5.90735 8.00836 7.21165 8.00836 8.81453C8.00836 9.0665 8.21183 9.26997 8.4638 9.26997C8.71577 9.26997 8.91923 9.0665 8.91923 8.81453C8.91923 7.71375 9.81476 6.81822 10.9155 6.81822C12.0163 6.81822 12.9119 7.71375 12.9119 8.81453C12.9119 9.91532 12.0163 10.8108 10.9155 10.8108C10.6636 10.8108 10.4601 11.0143 10.4601 11.2663V12.4922C10.4601 12.7441 10.6636 12.9476 10.9155 12.9476C11.1675 12.9476 11.371 12.7441 11.371 12.4922V11.688L11.4971 11.6624C12.8221 11.3932 13.8227 10.2177 13.8227 8.81453C13.8227 7.21165 12.5184 5.90735 10.9155 5.90735ZM10.1451 14.9439C10.1451 14.518 10.4896 14.1735 10.9155 14.1735C11.3415 14.1735 11.686 14.518 11.686 14.9439C11.686 15.3698 11.3415 15.7143 10.9155 15.7143C10.4896 15.7143 10.1451 15.3698 10.1451 14.9439ZM10.9155 14.4885C10.6636 14.4885 10.4601 14.6919 10.4601 14.9439C10.4601 15.1959 10.6636 15.3993 10.9155 15.3993C11.1675 15.3993 11.371 15.1959 11.371 14.9439C11.371 14.6919 11.1675 14.4885 10.9155 14.4885Z" fill="#575A65"/>
</svg>
