<svg width="112" height="23" viewBox="0 0 112 23" fill="none" xmlns="http://www.w3.org/2000/svg">
<path d="M55.4422 20.8356C54.7158 19.1967 53.9731 17.5657 53.2341 15.9332C53.0055 15.4283 52.7024 14.9792 52.3204 14.5953C51.8454 14.1183 51.8816 13.6947 52.4435 13.3275C53.4259 12.6865 54.1221 11.7826 54.5439 10.6382C55.1944 8.87113 55.2069 7.06181 54.7276 5.25488C54.2091 3.29983 52.9782 2.11644 51.1677 1.60438C50.4612 1.4053 49.7384 1.32725 49.0171 1.32009C46.6461 1.29779 44.2743 1.30814 41.9025 1.31371C41.2322 1.31451 40.9991 1.5797 40.9984 2.30358C40.9976 5.44839 40.9984 8.5924 40.9984 11.7372C40.9984 14.8812 40.9976 18.026 40.9984 21.17C40.9984 21.9091 41.2322 22.1695 41.9276 22.179C42.6526 22.1894 43.3775 22.1734 44.1025 22.1846C44.9609 22.1989 45.3651 22.089 45.3385 20.8841C45.2972 19.0143 45.3267 17.1429 45.3289 15.2722C45.3289 14.7761 45.4934 14.5109 45.84 14.4193C46.9455 14.1263 47.905 14.6431 48.3844 15.7604C49.2052 17.6732 50.0489 19.5757 50.8646 21.4918C51.0718 21.9783 51.3823 22.1926 51.8705 22.1862C52.7916 22.1727 53.7135 22.1862 54.6346 22.1806C55.4916 22.1758 55.808 21.6614 55.4422 20.8356ZM50.8557 8.37739C50.7348 9.55759 50.0991 10.1349 48.8866 10.1971C47.8947 10.2472 46.8991 10.2202 45.9049 10.2114C45.5303 10.209 45.3238 9.97647 45.3127 9.55599C45.298 8.99934 45.309 8.44269 45.309 7.88604C45.3083 7.32938 45.3031 6.77273 45.3098 6.21608C45.3142 5.85135 45.4764 5.57262 45.8231 5.56068C46.9146 5.52405 48.0119 5.45397 49.0961 5.59413C50.5393 5.78127 51.0231 6.75043 50.8557 8.37739Z" fill="#575A65"/>
<path d="M34.3267 13.9535C34.3267 16.329 34.3275 18.7037 34.326 21.0793C34.326 21.9011 34.0716 22.1774 33.3083 22.1814C32.5096 22.1854 31.7108 22.1846 30.9121 22.1814C30.0618 22.1782 29.8118 21.9123 29.8111 20.9941C29.8088 16.337 29.8103 11.6791 29.8103 7.02201C29.8103 6.88902 29.8118 6.75682 29.8096 6.62383C29.8022 6.04408 29.5913 5.80836 29.0441 5.80438C27.9504 5.79642 26.8567 5.80279 25.763 5.8012C25.1147 5.8004 24.8617 5.53601 24.8588 4.84955C24.8544 4.00063 24.8544 3.15092 24.8588 2.30201C24.8625 1.63307 25.1361 1.31612 25.7585 1.31533C29.9608 1.30895 34.1638 1.30895 38.366 1.31533C39.029 1.31612 39.2761 1.60201 39.2783 2.31077C39.2812 3.15968 39.2812 4.00939 39.2783 4.85831C39.2753 5.54875 39.0452 5.8004 38.4169 5.8012C37.3357 5.80358 36.2538 5.7996 35.1726 5.80279C34.5487 5.80438 34.3275 6.0409 34.3275 6.70904C34.326 9.12359 34.3267 11.5389 34.3267 13.9535Z" fill="#575A65"/>
<path d="M26.1096 22.0221C25.6915 22.0213 25.274 22.0205 24.8559 22.0221C24.4112 22.0229 24.1206 21.8119 23.9657 21.3468C23.6294 20.3363 23.2636 19.3368 22.9273 18.3255C22.7865 17.9026 22.5446 17.7274 22.1264 17.7298C20.0991 17.7425 18.0709 17.7346 16.0436 17.7362C15.5384 17.737 15.3946 17.8476 15.2205 18.3486C14.8813 19.3305 14.5428 20.3124 14.2035 21.2935C14.0125 21.8461 13.809 22.015 13.2765 22.0198C12.4284 22.0277 11.5803 22.0309 10.7329 22.019C9.97325 22.0086 9.67531 21.5109 9.95924 20.7448C10.2874 19.8577 10.6267 18.9761 10.9453 18.085C11.0434 17.8118 11.185 17.7067 11.463 17.6955C14.0427 17.5912 16.1188 16.4054 17.6764 14.1987C18.0134 13.7209 18.363 13.4948 18.9117 13.5457C19.3262 13.5848 19.7465 13.5545 20.1647 13.5529C20.9044 13.5497 21.1551 13.1778 20.9037 12.4388C20.4162 11.007 19.9221 9.57829 19.4287 8.14963C19.2871 7.73951 19.1661 7.32461 19.0688 6.89776C18.7472 5.48025 18.1491 4.20927 17.2177 3.14693C16.8438 2.72088 16.8334 2.31076 17.0311 1.80666C17.2236 1.31611 17.5554 1.1425 18.0178 1.14808C18.6691 1.15604 19.3203 1.14728 19.9715 1.15047C20.6507 1.15445 20.8233 1.27788 21.0792 1.95877C22.5461 5.86808 24.0107 9.77818 25.4769 13.6875C26.353 16.0232 27.2284 18.3589 28.1082 20.6938C28.4209 21.5244 28.1252 22.011 27.2896 22.0205C26.8958 22.0261 26.5027 22.0229 26.1096 22.0221Z" fill="#575A65"/>
<path d="M62.0572 11.7619C62.0572 14.8669 62.058 17.9719 62.0572 21.0769C62.0572 21.9067 61.8117 22.1766 61.0469 22.1806C60.2238 22.1846 59.4001 22.1862 58.577 22.1798C57.8867 22.1743 57.6065 21.8796 57.6057 21.1422C57.6028 14.8661 57.6028 8.58923 57.6057 2.31315C57.6057 1.6243 57.8897 1.32089 58.5342 1.31373C59.3824 1.30417 60.2297 1.30656 61.0779 1.31213C61.8035 1.31691 62.0565 1.59165 62.0572 2.3673C62.058 5.49937 62.0572 8.63064 62.0572 11.7619Z" fill="#575A65"/>
<path d="M72.5897 22.4976C71.5321 22.3128 70.49 22.0643 69.5254 21.5411C66.3379 19.8123 64.4603 17.0226 63.9433 13.232C63.2109 7.86533 66.4921 2.29323 72.1722 1.3376C75.8966 0.710873 79.0479 2.04079 81.4448 5.26045C81.5215 5.36398 81.5893 5.47467 81.6579 5.58457C81.7965 5.80516 81.7353 5.97 81.5487 6.12609C81.3747 6.27182 81.2383 6.40083 81.0104 6.19378C80.6874 5.90152 80.4145 5.56147 80.135 5.2278C78.4542 3.22417 76.3044 2.18413 73.8633 2.17696C70.521 2.16661 67.8314 3.69641 66.0614 6.85475C65.2014 8.38933 64.6505 10.0521 64.7272 11.871C64.9573 17.3268 68.2008 20.6452 72.2696 21.3858C75.6318 21.9982 78.4918 20.7894 80.6682 17.8803C80.7301 17.7983 80.7921 17.7154 80.8621 17.6414C81.0753 17.4152 81.3179 17.369 81.5546 17.5777C81.798 17.7927 81.7302 18.042 81.5694 18.2825C80.8009 19.4308 79.8215 20.3195 78.6998 21.0418C77.5582 21.7769 76.3295 22.2523 75.0227 22.4976C74.2121 22.4976 73.4009 22.4976 72.5897 22.4976Z" fill="#575A65"/>
<path d="M66.3217 11.122C66.3371 15.3418 68.3616 18.4564 71.479 19.4566C74.1089 20.3007 77.2535 19.7783 79.233 17.1018C79.3325 16.9672 79.4343 16.8334 79.5435 16.7076C79.8362 16.3691 79.9749 16.3795 80.2743 16.6925C80.4683 16.8955 80.4432 17.0564 80.292 17.2722C78.9461 19.193 77.1798 20.3907 74.9754 20.7435C72.6287 21.1194 70.4767 20.5142 68.5917 18.9525C66.7413 17.4195 65.725 15.3633 65.4809 12.8596C65.2656 10.6545 65.6741 8.60149 66.8283 6.76111C68.262 4.47477 70.313 3.27228 72.8249 2.96011C75.4784 2.63041 77.741 3.52393 79.6069 5.58012C79.8893 5.89149 80.1231 6.25383 80.3842 6.5891C80.5346 6.78261 80.4638 6.92596 80.3097 7.05815C80.1563 7.19035 80.0383 7.43323 79.7846 7.21981C79.598 7.06213 79.4557 6.86384 79.3001 6.6767C78.2123 5.37067 76.918 4.44611 75.2999 4.07899C72.7688 3.50561 70.5291 4.1634 68.6595 6.04519C67.1543 7.56065 66.3843 9.50296 66.3217 11.122Z" fill="#575A65"/>
<path d="M73.4532 19.1763C70.2562 19.1763 67.3276 16.1939 67.0237 12.4566C66.728 8.82047 69.0194 5.54506 72.1626 4.75826C74.7438 4.11162 77.4084 5.11742 78.8819 7.32332C78.918 7.37747 78.9623 7.42764 78.9852 7.48737C79.0471 7.64823 79.2942 7.82741 79.0183 7.97792C78.7971 8.09897 78.564 8.38964 78.2875 8.00261C77.3678 6.71411 76.1362 6.00615 74.6657 5.68362C71.3351 4.95337 68.3933 7.78282 67.9699 10.8177C67.4802 14.3281 69.5828 17.5175 72.8234 18.0614C74.9385 18.4166 76.7152 17.6393 78.1157 15.8889C78.4792 15.435 78.6548 15.3816 78.9549 15.6691C79.1622 15.8674 79.115 16.0442 78.9859 16.2584C78.3598 17.2921 77.4866 18.0024 76.4607 18.5065C75.5787 18.9398 74.6553 19.1922 73.4532 19.1763Z" fill="#575A65"/>
<path d="M73.6177 6.2832C75.2985 6.28241 76.5861 6.97524 77.609 8.26692C77.7668 8.46681 77.9638 8.68103 77.6651 8.93666C77.4195 9.1469 77.2277 9.2345 76.9637 8.89764C75.4223 6.92984 72.8175 6.97205 71.4096 7.99059C69.9015 9.0816 69.2082 10.9252 69.5939 12.9216C69.9287 14.6577 71.3204 16.1102 73.0078 16.3921C74.5728 16.6533 75.8825 16.0537 76.9534 14.8273C77.1643 14.586 77.3273 14.422 77.6075 14.7182C77.8686 14.9945 77.89 15.1442 77.5987 15.4899C76.1414 17.2211 74.3478 17.8582 72.2688 17.1821C70.1721 16.5004 68.9095 14.9141 68.6101 12.5649C68.2237 9.53233 70.1375 6.8311 72.9414 6.33736C73.1951 6.29276 73.4555 6.29515 73.6177 6.2832Z" fill="#575A65"/>
<path d="M82.914 22.4971C82.9066 22.3785 82.8934 22.259 82.8934 22.1403C82.8926 15.2535 82.8948 8.36578 82.8867 1.4789C82.886 1.10063 82.9914 0.966047 83.3484 0.970825C83.7039 0.975604 83.7407 1.17947 83.7481 1.4781C83.8956 7.93894 83.8145 14.4006 83.7997 20.8614C83.799 21.258 83.7511 21.6554 83.7503 22.0519C83.7503 22.3084 83.6589 22.4509 83.4303 22.4971C83.2577 22.4971 83.0858 22.4971 82.914 22.4971Z" fill="#575A65"/>
<path d="M86.2289 11.7463C86.2289 8.33629 86.2282 4.92629 86.2297 1.5171C86.2297 1.00026 86.3241 0.921422 86.8005 0.981149C86.9812 1.00345 87.0475 1.09423 87.0719 1.28297C87.1338 1.75839 87.1272 2.23541 87.136 2.71243C87.243 8.33629 87.2216 13.9609 87.184 19.5848C87.1788 20.3525 87.15 21.1218 87.1301 21.8903C87.1169 22.4182 87.0837 22.4214 86.636 22.4533C86.2068 22.4835 86.2267 22.2032 86.2267 21.8966C86.2297 18.5129 86.2289 15.13 86.2289 11.7463Z" fill="#575A65"/>
<path d="M87.8518 11.6834C87.8518 8.56725 87.8503 5.45032 87.8547 2.33418C87.8555 2.03077 87.8865 1.72656 87.9137 1.42395C87.9388 1.14044 88.0907 0.99949 88.357 1.00427C88.6343 1.00905 88.6807 1.18663 88.6984 1.44943C88.798 2.87968 88.7508 4.31153 88.7619 5.74258C88.7862 8.83164 88.843 11.9207 88.8024 15.009C88.7729 17.2356 88.798 19.463 88.7434 21.6888C88.7405 21.821 88.7243 21.9524 88.7147 22.0846C88.6992 22.3036 88.6453 22.4637 88.3872 22.4477C88.1379 22.4326 87.9455 22.3625 87.916 22.0623C87.885 21.7461 87.8547 21.4284 87.8547 21.1114C87.8503 17.969 87.8518 14.8266 87.8518 11.6834Z" fill="#575A65"/>
<path d="M85.4244 11.7303C85.4244 15.1117 85.4252 18.493 85.4237 21.8751C85.4237 22.3665 85.3507 22.4437 84.9687 22.4437C84.7305 22.4437 84.5948 22.329 84.5623 22.083C84.538 21.9006 84.5232 21.7142 84.5232 21.5295C84.5203 14.9922 84.5195 8.45413 84.5195 1.91685C84.5195 1.75838 84.5262 1.59831 84.5453 1.44143C84.5837 1.12049 84.7688 0.993874 85.0586 1.00343C85.3735 1.01299 85.4274 1.21446 85.4274 1.50673C85.4222 4.91433 85.4237 8.32273 85.4244 11.7303Z" fill="#575A65"/>
<path d="M106.044 22.4457C105.434 22.4537 105.435 22.4529 105.194 21.7887C102.954 15.6154 100.715 9.44126 98.4704 3.26951C98.404 3.08794 98.4062 2.76462 98.1916 2.77895C97.9917 2.79169 97.9158 3.08953 97.8391 3.29738C96.9821 5.64105 96.1214 7.98313 95.274 10.33C94.7895 11.6719 94.3913 12.4929 93.9156 13.8379C93.8721 13.9614 93.7622 14.0426 93.6398 14.0426H93.1818C92.9738 14.0426 92.8315 13.8172 92.9074 13.6078C94.4104 9.46037 95.8345 5.83616 97.3361 1.68715C97.4607 1.34392 97.5905 1.02219 97.9593 0.916276H98.2543C98.6385 0.913887 98.7749 1.17828 98.9018 1.52867C101.37 8.34547 103.85 15.1583 106.327 21.9719C106.491 22.4258 106.481 22.4402 106.044 22.4457Z" fill="#575A65"/>
<path d="M103.859 0.916324C104.275 1.0302 104.411 1.4013 104.547 1.77718C105.744 5.08285 106.96 8.38216 108.14 11.695C109.28 14.8971 110.454 18.0849 111.628 21.2728C111.737 21.5666 111.809 21.8764 111.898 22.1782C111.954 22.4506 111.858 22.5453 111.602 22.5015C111.459 22.4768 111.308 22.4968 111.161 22.4968C110.933 22.3478 110.856 22.0938 110.762 21.8477C109.026 17.3005 107.458 12.6817 105.767 8.11538C104.942 5.88797 104.151 3.64543 103.334 1.41484C103.168 0.96092 103.544 1.04454 103.711 0.915527C103.761 0.916324 103.81 0.916324 103.859 0.916324Z" fill="#575A65"/>
<path d="M103.273 17.6581C103.258 17.901 103.171 18.0364 102.921 18.0698C102.198 18.167 101.475 18.1064 100.752 18.1176C100.563 18.1208 99.4207 18.1208 97.9789 18.1192C97.6433 18.1192 97.2923 18.1192 96.9324 18.1184C96.6809 18.1176 96.4257 18.1176 96.1691 18.1168C95.8106 18.116 95.4493 18.1152 95.0938 18.1144C95.0392 18.1144 94.9301 18.1136 94.8062 18.1136C94.5075 18.1128 94.2383 18.3071 94.124 18.605C94.0842 18.7085 94.0532 18.7905 94.0421 18.82C93.9219 19.1505 93.8032 19.4818 93.6859 19.8138C93.4499 20.4756 93.2176 21.139 92.9875 21.8039C92.8953 22.0715 92.7736 22.308 92.576 22.4976H92.2072C91.7168 22.3176 91.7168 22.3176 91.9071 21.7928C92.146 21.1326 92.3857 20.4732 92.6247 19.813C92.7449 19.4818 92.8651 19.1505 92.9853 18.8192C93.0716 18.5819 93.1571 18.3446 93.2427 18.108H93.2434C93.3275 17.8755 93.3666 17.7807 93.4462 17.5474C93.593 17.1158 93.9728 17.0553 94.3261 17.0569H96.5511C96.8092 17.0569 97.0651 17.0576 97.3166 17.0576H98.3661C99.712 17.0584 100.758 17.0592 100.952 17.0592C101.554 17.0584 102.155 17.0489 102.756 17.0616C103.146 17.0704 103.3 17.2663 103.273 17.6581Z" fill="#575A65"/>
<path d="M98.6212 6.24953C97.6367 8.95475 96.7288 11.1352 95.7435 13.8404C95.6993 13.9622 95.5901 14.0427 95.4692 14.0427H95.0392C94.8312 14.0427 94.6889 13.8165 94.7649 13.6079C95.8541 10.6072 96.8652 8.13052 97.9553 5.13065C98.0187 4.95705 98.0165 4.66319 98.2222 4.65603C98.4243 4.64886 98.5143 4.91564 98.6065 5.09721C98.7989 5.47309 98.7613 5.86489 98.6212 6.24953Z" fill="#575A65"/>
<path d="M99.5693 8.77472C98.9417 10.4885 98.3893 11.6766 97.7668 13.3928C97.7123 13.5417 97.6584 13.6906 97.6046 13.8403C97.5603 13.9622 97.4512 14.0426 97.3302 14.0426H96.8892C96.6812 14.0426 96.5389 13.8172 96.6141 13.6078C97.4025 11.4298 98.112 9.77733 98.9011 7.5993C98.9498 7.46631 98.9653 7.27359 99.1039 7.24174C99.2639 7.2051 99.3554 7.3811 99.4476 7.50135C99.7485 7.89395 99.7337 8.32637 99.5693 8.77472Z" fill="#575A65"/>
<path d="M96.8064 20.1689C97.0136 20.1689 97.1567 20.3943 97.0815 20.603C96.9347 21.0099 96.7879 21.4168 96.6419 21.823C96.5519 22.073 96.4443 22.308 96.2643 22.4975H95.8956C95.4273 22.2849 95.4243 22.2841 95.6138 21.7617C95.782 21.299 95.9494 20.8355 96.1168 20.3712C96.1611 20.2494 96.2702 20.1689 96.3919 20.1689H96.8064Z" fill="#575A65"/>
<path d="M100.444 11.4282C100.082 12.4085 99.7989 12.8625 99.4368 13.842C99.3918 13.963 99.2834 14.0427 99.1632 14.0427H98.731C98.523 14.0427 98.3807 13.8165 98.4559 13.6079C98.9346 12.2859 99.3358 11.4895 99.8159 10.1684C99.8653 10.0314 99.8601 9.80764 100.042 9.80207C100.195 9.79809 100.279 9.97567 100.363 10.1039C100.643 10.5252 100.612 10.9727 100.444 11.4282Z" fill="#575A65"/>
<path d="M107.653 22.4458C107.387 22.5087 107.237 22.3606 107.123 22.0468C104.647 15.2037 102.162 8.36542 99.6833 1.52393C99.6287 1.37422 99.4709 1.18946 99.7216 1.0509C99.9901 0.901977 100.423 0.945776 100.57 1.16796C100.661 1.30653 100.728 1.46739 100.787 1.62666C102.163 5.31617 103.5 9.024 104.83 12.7334C105.841 15.5525 106.882 18.3597 107.908 21.1732C107.989 21.3954 108.072 21.6184 108.128 21.8485C108.257 22.3757 108.199 22.4482 107.653 22.4458Z" fill="#575A65"/>
<path d="M109.523 22.441C109.251 22.5063 109.087 22.3605 108.967 22.0292C106.498 15.1989 104.019 8.37255 101.544 1.5446C101.492 1.39966 101.355 1.2372 101.561 1.09147C101.809 0.917068 102.241 0.936977 102.42 1.14244C102.558 1.30171 102.62 1.50637 102.691 1.70387C103.625 4.31352 104.525 6.93752 105.499 9.52965C106.976 13.4613 108.313 17.4534 109.829 21.3683C109.896 21.5387 109.958 21.7155 109.99 21.8955C110.083 22.4051 110.05 22.441 109.523 22.441Z" fill="#575A65"/>
<path d="M103.711 19.8083C102.802 19.817 101.894 19.8131 100.985 19.8131C100.642 19.8131 99.1458 19.8131 97.3662 19.8139H95.9104C95.6973 19.8139 95.5063 19.9548 95.4296 20.169C95.2231 20.7416 95.0173 21.315 94.8108 21.8876C94.7252 22.1265 94.6257 22.3503 94.4207 22.4976H94.1257C94.0556 22.4729 93.9878 22.441 93.9162 22.4251C93.6374 22.3654 93.6035 22.2061 93.7038 21.9369C93.9671 21.2306 94.2237 20.5226 94.4797 19.8139C94.5571 19.6012 94.6338 19.3878 94.7105 19.1752C94.7879 18.961 94.9782 18.82 95.1913 18.82H96.6796C97.0292 18.82 97.3795 18.8192 97.7261 18.8192C100.213 18.8192 102.535 18.8192 103.215 18.8216C103.637 18.8232 103.95 19.1465 104.007 19.6036C104.042 19.8991 103.83 19.8075 103.711 19.8083Z" fill="#575A65"/>
<path d="M102.217 16.1538C101.801 16.157 101.384 16.1546 100.967 16.1546H93.5571C93.3432 16.1546 93.1522 16.2964 93.0755 16.5122C93.0106 16.6937 92.9457 16.8761 92.8808 17.0577C92.7562 17.4065 92.6315 17.7561 92.5062 18.1049C92.4206 18.343 92.3351 18.5811 92.2488 18.8192C92.1293 19.1513 92.0091 19.4826 91.8881 19.8131C91.6426 20.486 91.394 21.1573 91.1425 21.827C91.0385 22.1042 90.9257 22.363 90.6587 22.4976H90.3637C89.8556 22.3375 89.8556 22.3375 90.0333 21.8485C90.2797 21.1701 90.5252 20.4908 90.7716 19.8123C90.891 19.481 91.0113 19.1497 91.1315 18.8176C91.2185 18.5779 91.3055 18.3382 91.3925 18.0977C91.5179 17.7521 91.6433 17.4057 91.7687 17.0593C91.8786 16.7582 91.9877 16.4564 92.0968 16.1546C92.175 15.938 92.2539 15.7214 92.3321 15.5048C92.4096 15.2914 92.5998 15.1512 92.8115 15.1504C93.0357 15.1496 93.2864 15.1496 93.5586 15.1496C93.7968 15.1488 94.0505 15.1488 94.316 15.1488C94.6537 15.148 95.0107 15.148 95.3787 15.148H95.3794C95.6376 15.148 95.9009 15.1472 96.1671 15.148C96.5233 15.1472 96.8839 15.1472 97.2416 15.1472H98.0093C98.3729 15.1472 98.7284 15.1472 99.0684 15.148C100.549 15.148 101.729 15.1496 101.971 15.1512C102.245 15.1536 102.478 15.2523 102.586 15.5573C102.732 15.9691 102.621 16.1506 102.217 16.1538Z" fill="#575A65"/>
<path d="M11.4433 13.1355C12.4721 13.1355 13.3498 12.7469 14.0762 11.9673C14.8019 11.1876 15.164 10.1532 15.164 8.86466C15.164 7.82064 14.7901 6.8897 14.0415 6.07264C13.2922 5.25558 12.4272 4.84705 11.4433 4.84705H4.48213C3.86779 4.84705 3.36925 5.38459 3.36925 6.04875V8.78741C3.36925 9.03588 3.55583 9.23815 3.78667 9.23815H3.79478C4.02488 9.23815 4.2122 9.03667 4.2122 8.78741V6.20802C4.2122 5.95956 4.39879 5.75728 4.62962 5.75728H11.4433C12.1926 5.75728 12.8593 6.07582 13.4449 6.71052C14.029 7.3476 14.3225 8.06512 14.3225 8.86386C14.3225 9.93496 14.043 10.7624 13.4855 11.3461C12.9279 11.9314 12.2479 12.2245 11.4441 12.2245H2.79843C2.18409 12.2245 1.68555 12.762 1.68555 13.4262V21.6796C1.68555 21.9281 1.87213 22.1303 2.10297 22.1303H2.11108C2.34118 22.1303 2.5285 21.9289 2.5285 21.6796V13.5862C2.5285 13.3378 2.71509 13.1355 2.94592 13.1355H11.4433Z" fill="#575A65"/>
<path d="M11.4437 11.3158C12.8014 11.3158 13.4799 10.4987 13.4799 8.86463C13.4799 8.27612 13.2786 7.76247 12.8774 7.32368C12.4755 6.88489 11.9968 6.66748 11.4437 6.66748H6.1684C5.55407 6.66748 5.05552 7.20502 5.05552 7.86918V8.78738C5.05552 9.03584 5.24211 9.23812 5.47294 9.23812H5.47958C5.70968 9.23812 5.897 9.03664 5.897 8.78738V8.02686C5.897 7.7784 6.08359 7.57612 6.31443 7.57612H11.4437C11.7785 7.57612 12.0625 7.69956 12.2918 7.94245C12.5212 8.18693 12.637 8.49512 12.637 8.86463C12.637 9.438 12.533 9.83777 12.3213 10.0663C12.1111 10.2933 11.8176 10.4072 11.4437 10.4072H1.11288C0.498546 10.4072 0 10.9447 0 11.6089V21.6812C0 21.9296 0.186586 22.1319 0.417421 22.1319H0.425534C0.655632 22.1319 0.842955 21.9304 0.842955 21.6812V11.7665C0.842955 11.5181 1.02954 11.3158 1.26038 11.3158H11.4437Z" fill="#575A65"/>
<path d="M11.4433 14.9544C12.4028 14.9544 13.2944 14.6964 14.1168 14.178C14.9398 13.6595 15.6006 12.9317 16.0999 11.9928C16.5992 11.0523 16.8492 10.0106 16.8492 8.86469C16.8492 7.85411 16.6014 6.89849 16.1065 5.99781C15.6102 5.09713 14.945 4.37563 14.1109 3.8365C13.2767 3.29737 12.3873 3.0282 11.4433 3.0282H2.79843C2.18409 3.0282 1.68555 3.56574 1.68555 4.2299V8.78744C1.68555 9.0359 1.87213 9.23818 2.10297 9.23818H2.11108C2.34118 9.23818 2.5285 9.0367 2.5285 8.78744V4.38758C2.5285 4.13911 2.71509 3.93684 2.94592 3.93684H11.4433C12.6521 3.93684 13.7148 4.43377 14.6323 5.42841C15.549 6.42226 16.0062 7.56822 16.0062 8.86469C16.0062 9.8681 15.7931 10.7688 15.369 11.5691C14.9435 12.3694 14.3859 12.9826 13.6956 13.4071C13.0046 13.8324 12.2531 14.045 11.4426 14.045H4.48139C3.86706 14.045 3.36851 14.5825 3.36851 15.2467V21.6796C3.36851 21.9281 3.5551 22.1304 3.78593 22.1304H3.79404C4.02414 22.1304 4.21147 21.9289 4.21147 21.6796V15.4044C4.21147 15.1559 4.39805 14.9536 4.62889 14.9536H11.4433V14.9544Z" fill="#575A65"/>
<path d="M17.5627 5.08766C16.9144 3.90906 16.0457 2.96697 14.9534 2.26459C13.8619 1.56061 12.6908 1.20862 11.443 1.20862H1.11288C0.498546 1.20862 0 1.74616 0 2.41032V8.78753C0 9.036 0.186586 9.23827 0.417421 9.23827H0.425534C0.655632 9.23827 0.842955 9.03679 0.842955 8.78753V2.56959C0.842955 2.32113 1.02954 2.11885 1.26038 2.11885H11.4437C12.544 2.11885 13.5758 2.42784 14.5382 3.04661C15.5021 3.66537 16.2684 4.49597 16.837 5.53681C17.4071 6.57605 17.6925 7.68617 17.6925 8.86478C17.6925 9.85146 17.5243 10.7792 17.1888 11.6504C16.854 12.5232 16.4033 13.263 15.837 13.8746C15.2706 14.4862 14.6061 14.9696 13.8428 15.328C13.078 15.6856 12.2778 15.8639 11.4437 15.8639H6.1684C5.55407 15.8639 5.05552 16.4015 5.05552 17.0656V21.6805C5.05552 21.929 5.24211 22.1313 5.47294 22.1313H5.47958C5.70968 22.1313 5.897 21.9298 5.897 21.6805V17.2249C5.897 16.9765 6.08359 16.7742 6.31442 16.7742H11.4437C12.3951 16.7742 13.3007 16.591 14.1584 16.2247C15.0169 15.8584 15.7691 15.3415 16.4174 14.6766C17.0641 14.0116 17.5789 13.1762 17.9609 12.1689C18.3437 11.1631 18.534 10.0617 18.534 8.86478C18.534 7.5269 18.2095 6.26627 17.5627 5.08766Z" fill="#575A65"/>
</svg>
