<svg width="257" height="121" viewBox="0 0 257 121" fill="none" xmlns="http://www.w3.org/2000/svg">
<path d="M2 113.424C7.3938 97.0843 28.6517 67.2886 44.8331 85.5507C68.6228 112.399 72.4367 100.928 87.6662 67.2886C102.896 33.649 117.173 -4.79631 148.584 67.2886C160.007 92.2785 169.133 115.296 194.665 76.623C197.711 72.0096 252.972 3.58172 255 1.5528" stroke="#63BDAF" stroke-width="3" stroke-linecap="round"/>
<path d="M204.229 28.2297C198.499 45.3579 175.917 76.5921 158.727 57.4483C133.456 29.3033 129.404 41.3283 113.226 76.5921C97.0477 111.856 81.8806 152.157 48.513 76.5921C36.3793 50.3957 26.268 34.2751 2.00061 68.5313" stroke="#DEF5F2" stroke-width="3" stroke-linecap="round"/>
<g filter="url(#filter0_d)">
<circle cx="92" cy="56.0001" r="9" fill="#2DCA73"/>
<circle cx="92" cy="56.0001" r="7.5" stroke="white" stroke-width="3"/>
</g>
<rect x="89" y="4.00006" width="85" height="42" rx="8" fill="#444854"/>
<path d="M102.251 23.0001V19.9161H101.315V19.1481H102.251V18.1641H101.315V17.3961H102.251V14.4321H103.499L104.639 17.3961H106.055V14.4321H107.003V17.3961H107.939V18.1641H107.003V19.1481H107.939V19.9161H107.003V23.0001H105.743L104.603 19.9161H103.187V23.0001H102.251ZM103.163 17.3961H103.667L103.163 15.9081H103.115L103.163 17.3961ZM103.187 19.1481H104.315L103.955 18.1641H103.163L103.187 19.1481ZM105.275 19.1481H106.079L106.055 18.1641H104.915L105.275 19.1481ZM106.055 21.3081H106.103L106.067 19.9161H105.563L106.055 21.3081ZM113.919 23.0001V21.9201H110.115L112.263 19.7841C113.259 18.7881 113.763 17.8641 113.763 17.0121C113.763 16.2321 113.499 15.6081 112.983 15.1401C112.467 14.6721 111.855 14.4441 111.146 14.4441C110.007 14.4441 109.023 15.0081 108.495 16.1001L109.431 16.6521C109.791 15.8961 110.367 15.5241 111.159 15.5241C111.987 15.5241 112.647 16.0761 112.647 17.0241C112.647 17.5881 112.251 18.2721 111.459 19.0641L108.495 22.0881V23.0001H113.919ZM119.868 20.3601V17.9841H118.752V20.3601H115.668L118.68 14.6001H117.48L114.468 20.3601V21.4041H118.752V23.0001H119.868V21.4041H120.888V20.3601H119.868ZM122.293 21.7641L121.813 24.6801H122.713L123.493 21.7641H122.293ZM129.98 21.9681C130.545 21.1761 130.833 20.1201 130.833 18.8001C130.833 17.4801 130.545 16.4241 129.98 15.6321C129.417 14.8401 128.613 14.4441 127.593 14.4441C126.573 14.4441 125.769 14.8401 125.205 15.6321C124.641 16.4241 124.353 17.4801 124.353 18.8001C124.353 20.1201 124.641 21.1761 125.205 21.9681C125.769 22.7601 126.573 23.1561 127.593 23.1561C128.613 23.1561 129.417 22.7601 129.98 21.9681ZM125.469 18.8001C125.469 16.7001 126.237 15.5241 127.593 15.5241C128.949 15.5241 129.729 16.7241 129.729 18.8001C129.729 20.8761 128.949 22.0641 127.593 22.0641C126.237 22.0641 125.469 20.8761 125.469 18.8001ZM137.539 21.9681C138.103 21.1761 138.391 20.1201 138.391 18.8001C138.391 17.4801 138.103 16.4241 137.539 15.6321C136.975 14.8401 136.171 14.4441 135.151 14.4441C134.131 14.4441 133.327 14.8401 132.763 15.6321C132.199 16.4241 131.911 17.4801 131.911 18.8001C131.911 20.1201 132.199 21.1761 132.763 21.9681C133.327 22.7601 134.131 23.1561 135.151 23.1561C136.171 23.1561 136.975 22.7601 137.539 21.9681ZM133.027 18.8001C133.027 16.7001 133.795 15.5241 135.151 15.5241C136.507 15.5241 137.287 16.7241 137.287 18.8001C137.287 20.8761 136.507 22.0641 135.151 22.0641C133.795 22.0641 133.027 20.8761 133.027 18.8001ZM145.098 21.9681C145.662 21.1761 145.95 20.1201 145.95 18.8001C145.95 17.4801 145.662 16.4241 145.098 15.6321C144.534 14.8401 143.73 14.4441 142.71 14.4441C141.69 14.4441 140.886 14.8401 140.322 15.6321C139.758 16.4241 139.47 17.4801 139.47 18.8001C139.47 20.1201 139.758 21.1761 140.322 21.9681C140.886 22.7601 141.69 23.1561 142.71 23.1561C143.73 23.1561 144.534 22.7601 145.098 21.9681ZM140.586 18.8001C140.586 16.7001 141.354 15.5241 142.71 15.5241C144.066 15.5241 144.846 16.7241 144.846 18.8001C144.846 20.8761 144.066 22.0641 142.71 22.0641C141.354 22.0641 140.586 20.8761 140.586 18.8001ZM147.577 23.1321C148.021 23.1321 148.357 22.7841 148.357 22.3521C148.357 21.9201 148.021 21.5721 147.577 21.5721C147.145 21.5721 146.797 21.9201 146.797 22.3521C146.797 22.7841 147.145 23.1321 147.577 23.1321ZM152.271 17.5041C152.187 17.5041 152.055 17.5161 151.875 17.5281L153.855 14.6001H152.583L149.883 18.6441C149.547 19.1121 149.379 19.6761 149.379 20.3241C149.379 21.1521 149.643 21.8361 150.183 22.3641C150.723 22.8921 151.419 23.1561 152.271 23.1561C153.111 23.1561 153.807 22.8921 154.347 22.3641C154.887 21.8361 155.163 21.1521 155.163 20.3241C155.163 19.4961 154.887 18.8121 154.347 18.2961C153.807 17.7681 153.111 17.5041 152.271 17.5041ZM152.271 18.5721C153.327 18.5721 154.059 19.2681 154.059 20.3241C154.059 21.3801 153.327 22.0881 152.271 22.0881C151.215 22.0881 150.483 21.3801 150.483 20.3241C150.483 19.2681 151.203 18.5721 152.271 18.5721ZM160.999 15.5841V14.6001H155.959V15.6441H159.691L157.747 18.2721L158.191 18.9561H158.479C159.523 18.9561 160.243 19.5441 160.243 20.5161C160.243 21.4881 159.523 22.0641 158.479 22.0641C157.507 22.0641 156.907 21.6801 156.655 20.9001L155.719 21.4521C156.139 22.5561 157.195 23.1561 158.479 23.1561C159.283 23.1561 159.955 22.9161 160.519 22.4481C161.083 21.9801 161.359 21.3321 161.359 20.5161C161.359 19.1841 160.459 18.2841 159.175 18.0441L160.999 15.5841Z" fill="white"/>
<path d="M104.881 30.4001V36.0001H107.065C107.825 36.0001 108.457 35.7281 108.961 35.1921C109.465 34.6481 109.721 33.9841 109.721 33.2001C109.721 32.4161 109.465 31.7521 108.961 31.2161C108.457 30.6721 107.825 30.4001 107.065 30.4001H104.881ZM105.625 35.2961V31.1041H107.065C107.633 31.1041 108.105 31.3041 108.465 31.7041C108.825 32.1041 109.009 32.6001 109.009 33.2001C109.009 33.8001 108.825 34.2961 108.465 34.6961C108.105 35.0961 107.633 35.2961 107.065 35.2961H105.625ZM114.391 34.3201C114.407 34.2161 114.415 34.1121 114.415 34.0081C114.415 33.4241 114.231 32.9281 113.855 32.5201C113.487 32.1041 113.007 31.8961 112.423 31.8961C111.807 31.8961 111.303 32.0961 110.911 32.4961C110.519 32.8961 110.327 33.4001 110.327 34.0001C110.327 34.6081 110.527 35.1121 110.919 35.5121C111.319 35.9041 111.839 36.1041 112.471 36.1041C113.255 36.1041 113.839 35.8001 114.231 35.2001L113.639 34.8641C113.399 35.2561 113.015 35.4481 112.487 35.4481C111.727 35.4481 111.175 35.0321 111.039 34.3201H114.391ZM112.423 32.5521C113.063 32.5521 113.591 32.9521 113.711 33.7121H111.039C111.159 33.0081 111.679 32.5521 112.423 32.5521ZM117.088 36.1041C117.864 36.1041 118.544 35.6961 118.888 35.0641L118.296 34.7201C118.072 35.1441 117.624 35.4161 117.088 35.4161C116.688 35.4161 116.352 35.2801 116.08 35.0081C115.816 34.7361 115.68 34.4001 115.68 34.0001C115.68 33.5921 115.816 33.2561 116.08 32.9841C116.352 32.7121 116.688 32.5761 117.088 32.5761C117.624 32.5761 118.072 32.8561 118.272 33.2801L118.856 32.9441C118.544 32.3041 117.88 31.8961 117.088 31.8961C116.488 31.8961 115.984 32.0961 115.584 32.5041C115.184 32.9041 114.984 33.4001 114.984 34.0001C114.984 34.6001 115.184 35.0961 115.584 35.5041C115.984 35.9041 116.488 36.1041 117.088 36.1041ZM121.167 30.9121L121.351 31.5521L122.543 31.2001V36.0001H123.279V30.4001H122.639L121.167 30.9121ZM127.17 33.1041C127.626 32.8161 127.858 32.4081 127.858 31.8801C127.858 31.3761 127.69 30.9841 127.346 30.7121C127.01 30.4321 126.602 30.2961 126.122 30.2961C125.65 30.2961 125.242 30.4321 124.898 30.7121C124.562 30.9841 124.394 31.3761 124.394 31.8801C124.394 32.4081 124.626 32.8161 125.082 33.1041C124.538 33.3841 124.21 33.8641 124.21 34.4641C124.21 34.9761 124.386 35.3761 124.746 35.6721C125.106 35.9601 125.562 36.1041 126.122 36.1041C126.69 36.1041 127.146 35.9601 127.506 35.6721C127.866 35.3761 128.042 34.9761 128.042 34.4641C128.042 33.8641 127.714 33.3841 127.17 33.1041ZM126.122 31.0081C126.698 31.0081 127.114 31.3121 127.114 31.8961C127.114 32.4641 126.674 32.7921 126.122 32.7921C125.57 32.7921 125.13 32.4641 125.13 31.8961C125.13 31.3121 125.554 31.0081 126.122 31.0081ZM126.122 35.3921C125.418 35.3921 124.946 35.0481 124.946 34.4161C124.946 33.8001 125.418 33.4481 126.122 33.4481C126.834 33.4481 127.306 33.8001 127.306 34.4161C127.306 35.0481 126.834 35.3921 126.122 35.3921ZM134.424 32.1761C134.424 31.6241 134.24 31.1681 133.88 30.8241C133.52 30.4721 133.064 30.2961 132.496 30.2961C131.928 30.2961 131.464 30.4721 131.104 30.8241C130.744 31.1681 130.568 31.6241 130.568 32.1761C130.568 32.7281 130.744 33.1841 131.104 33.5361C131.464 33.8801 131.928 34.0561 132.496 34.0561C132.56 34.0561 132.648 34.0481 132.768 34.0401L131.44 36.0001H132.28L134.088 33.3041H134.08C134.312 32.9841 134.424 32.6081 134.424 32.1761ZM132.496 31.0081C133.208 31.0081 133.688 31.4721 133.688 32.1761C133.688 32.8801 133.2 33.3521 132.496 33.3521C131.792 33.3521 131.304 32.8801 131.304 32.1761C131.304 31.4721 131.792 31.0081 132.496 31.0081ZM135.616 32.9441C135.912 32.9441 136.136 32.7121 136.136 32.4241C136.136 32.1361 135.912 31.9041 135.616 31.9041C135.328 31.9041 135.096 32.1361 135.096 32.4241C135.096 32.7121 135.328 32.9441 135.616 32.9441ZM135.616 36.0881C135.912 36.0881 136.136 35.8561 136.136 35.5681C136.136 35.2801 135.912 35.0481 135.616 35.0481C135.328 35.0481 135.096 35.2801 135.096 35.5681C135.096 35.8561 135.328 36.0881 135.616 36.0881ZM140.338 31.0561V30.4001H136.978V31.0961H139.466L138.17 32.8481L138.466 33.3041H138.658C139.354 33.3041 139.834 33.6961 139.834 34.3441C139.834 34.9921 139.354 35.3761 138.658 35.3761C138.01 35.3761 137.61 35.1201 137.442 34.6001L136.818 34.9681C137.098 35.7041 137.802 36.1041 138.658 36.1041C139.194 36.1041 139.642 35.9441 140.018 35.6321C140.394 35.3201 140.578 34.8881 140.578 34.3441C140.578 33.4561 139.978 32.8561 139.122 32.6961L140.338 31.0561ZM142.141 32.5841L142.237 31.0961H144.629V30.4001H141.565L141.357 33.3041H142.941C143.621 33.3041 144.109 33.6961 144.109 34.3441C144.109 34.9921 143.629 35.3761 142.925 35.3761C142.309 35.3761 141.861 35.0881 141.709 34.5441L141.077 34.9041C141.341 35.6801 142.069 36.1041 142.925 36.1041C143.461 36.1041 143.909 35.9441 144.285 35.6321C144.661 35.3201 144.845 34.8881 144.845 34.3441C144.845 33.7921 144.661 33.3681 144.293 33.0561C143.933 32.7441 143.485 32.5841 142.957 32.5841H142.141ZM152.221 36.0001L150.133 30.4001H149.293L147.205 36.0001H147.997L148.453 34.7441H150.973L151.429 36.0001H152.221ZM149.709 31.2881L150.717 34.0481H148.709L149.709 31.2881ZM157.281 30.4001L155.505 33.3601L153.721 30.4001H152.881V36.0001H153.625V31.6321L155.457 34.6721H155.553L157.385 31.6241V36.0001H158.121V30.4001H157.281Z" fill="#9DA8B6"/>
<defs>
<filter id="filter0_d" x="67" y="35.0001" width="50" height="50" filterUnits="userSpaceOnUse" color-interpolation-filters="sRGB">
<feFlood flood-opacity="0" result="BackgroundImageFix"/>
<feColorMatrix in="SourceAlpha" type="matrix" values="0 0 0 0 0 0 0 0 0 0 0 0 0 0 0 0 0 0 127 0" result="hardAlpha"/>
<feOffset dy="4"/>
<feGaussianBlur stdDeviation="8"/>
<feColorMatrix type="matrix" values="0 0 0 0 0 0 0 0 0 0 0 0 0 0 0 0 0 0 0.08 0"/>
<feBlend mode="normal" in2="BackgroundImageFix" result="effect1_dropShadow"/>
<feBlend mode="normal" in="SourceGraphic" in2="effect1_dropShadow" result="shape"/>
</filter>
</defs>
</svg>
