<svg width="40" height="40" viewBox="0 0 40 40" fill="none" xmlns="http://www.w3.org/2000/svg">
<rect width="40" height="40" rx="8" fill="#DEF5F2"/>
<path d="M14.1172 27.26H16.6761V15.5642L23.4859 27.26H26.4044V12H23.8454V23.0342L17.4798 12H14.1172V27.26Z" fill="#006156"/>
<path fill-rule="evenodd" clip-rule="evenodd" d="M12 18.3683C12 17.779 12.4734 17.3012 13.0574 17.3012H27.1563C27.7403 17.3012 28.2137 17.779 28.2137 18.3683C28.2137 18.9577 27.7403 19.4355 27.1563 19.4355H13.0574C12.4734 19.4355 12 18.9577 12 18.3683Z" fill="#006156"/>
<path fill-rule="evenodd" clip-rule="evenodd" d="M12 21.9249C12 21.3356 12.4734 20.8578 13.0574 20.8578H27.1563C27.7403 20.8578 28.2137 21.3356 28.2137 21.9249C28.2137 22.5143 27.7403 22.9921 27.1563 22.9921H13.0574C12.4734 22.9921 12 22.5143 12 21.9249Z" fill="#006156"/>
</svg>
