<svg width="17" height="20" viewBox="0 0 17 20" fill="none" xmlns="http://www.w3.org/2000/svg">
<path fill-rule="evenodd" clip-rule="evenodd" d="M9.77898 16.5278C9.77898 17.327 8.96464 18.0027 8.00094 18.0027C7.03724 18.0027 6.22289 17.327 6.22289 16.5278V16.2246H9.77898V16.5278ZM15.5768 13.7409L13.9757 12.138V8.16583C13.9757 5.07115 11.7514 2.4432 8.80072 2.05203C7.09291 1.82533 5.36821 2.3463 4.07468 3.48069C2.77315 4.62041 2.02727 6.26066 2.02727 7.98002L2.02638 12.138L0.426139 13.7418C0.00918833 14.1587 -0.114386 14.781 0.111426 15.326C0.338126 15.871 0.865316 16.2239 1.45563 16.2239H4.4454V16.5271C4.4454 18.3211 6.04031 19.78 8.00149 19.78C9.96267 19.78 11.5576 18.3211 11.5576 16.5271V16.2239H14.5465C15.1368 16.2239 15.664 15.8719 15.8898 15.326C16.1165 14.781 15.9929 14.1587 15.5768 13.7409Z" fill="#444854"/>
<circle cx="12.5" cy="4.5" r="4.5" fill="white"/>
<circle cx="12.5" cy="4.5" r="2.5" fill="#EA2222"/>
</svg>
