<svg width="18" height="20" viewBox="0 0 18 20" fill="none" xmlns="http://www.w3.org/2000/svg">
<path d="M16.6514 5.02299L9.0902 9.30241C8.96516 9.37292 8.81188 9.37292 8.68784 9.30241L1.13373 5.01206C0.867501 4.86111 0.863468 4.48371 1.12667 4.32779L8.31069 0.0573082C8.43372 -0.0161838 8.587 -0.0191632 8.71305 0.0493631L16.6443 4.33176C16.9206 4.47875 16.9247 4.86806 16.6514 5.02299Z" fill="#C0CCDA"/>
<path d="M7.34537 19.9439L0.197651 15.7717C0.0746235 15.7002 0 15.5701 0 15.4301L0.0040337 7.21985C0.0040337 6.91496 0.338831 6.72328 0.608081 6.87523L7.7679 10.9203C7.89395 10.9908 7.97059 11.1229 7.97059 11.2659L7.95345 19.6033C7.95345 19.9101 7.61361 20.1008 7.34537 19.9439Z" fill="#979AA5"/>
<path d="M10.0451 19.8605L17.1929 15.6883C17.3159 15.6168 17.3905 15.4867 17.3905 15.3467L17.3865 7.13642C17.3865 6.83152 17.0517 6.63985 16.7824 6.7918L9.62262 10.8368C9.49656 10.9074 9.41992 11.0394 9.41992 11.1824L9.43706 19.5198C9.43606 19.8267 9.7759 20.0164 10.0451 19.8605Z" fill="#979AA5"/>
</svg>
