<svg width="18" height="18" viewBox="0 0 18 18" fill="none" xmlns="http://www.w3.org/2000/svg">
<path fill-rule="evenodd" clip-rule="evenodd" d="M15.4438 18H9.8188V12.272H16.3638V17.091C16.3638 17.593 15.9518 18 15.4438 18ZM1.6371 17.0905V12.2725H8.1821V18.0005H2.5571C2.0491 18.0005 1.6371 17.5925 1.6371 17.0905ZM17.1 4.09082H15.258C15.437 3.71782 15.546 3.30482 15.546 2.86282C15.546 1.28482 14.261 -0.000183105 12.682 -0.000183105C10.801 -0.000183105 9.661 1.31982 9 2.56882C8.339 1.31982 7.2 -0.000183105 5.319 -0.000183105C3.74 -0.000183105 2.454 1.28482 2.454 2.86282C2.454 3.30482 2.564 3.71782 2.743 4.09082H0.901C0.404 4.09082 0 4.67682 0 5.40082V9.32682C0 10.0498 0.404 10.6368 0.901 10.6368H1.637H8.182V4.09082H9.819V10.6368H16.364H17.1C17.597 10.6368 18 10.0498 18 9.32682V5.40082C18 4.67682 17.597 4.09082 17.1 4.09082ZM12.682 4.09082H10.101C10.487 3.07482 11.281 1.63682 12.682 1.63682C13.359 1.63682 13.91 2.18682 13.91 2.86282C13.91 3.53982 13.359 4.09082 12.682 4.09082ZM5.319 4.09082C4.642 4.09082 4.091 3.53982 4.091 2.86282C4.091 2.18682 4.642 1.63682 5.319 1.63682C6.72 1.63682 7.514 3.07482 7.9 4.09082H5.319Z" fill="#006156"/>
</svg>
