<svg width="34" height="34" viewBox="0 0 34 34" fill="none" xmlns="http://www.w3.org/2000/svg">
<g clip-path="url(#clip0)">
<path d="M6.7828 33.5612C2.51685 32.8635 0.127834 30.8338 0.334673 26.886C0.865549 26.2079 1.37843 25.5388 1.90706 24.881C3.05316 23.4568 4.29713 22.1288 5.73342 20.9944C6.80754 20.1453 7.96377 19.4433 9.27634 19.029C11.329 18.3802 13.3007 18.6384 15.2206 19.5486C15.3735 19.6211 15.5569 19.6652 15.7256 19.6652C17.4476 19.6731 19.1707 19.6664 20.8926 19.6777C21.0434 19.6788 21.2233 19.7456 21.338 19.843C21.5933 20.0615 21.8363 20.3026 22.0466 20.5641C22.8036 21.5027 22.8373 22.4627 22.2018 23.4862C21.8532 24.0466 21.455 24.3568 20.7194 24.324C19.1403 24.2527 17.5567 24.3025 15.9753 24.3025C15.8729 24.3025 15.7706 24.3025 15.6345 24.3025C15.7087 24.6919 15.9179 24.9738 16.1856 25.2071C16.6175 25.5841 17.0854 25.8218 17.7029 25.8014C19.0121 25.7584 20.3235 25.7935 21.6338 25.7811C21.7868 25.7799 21.969 25.7199 22.0871 25.6237C23.8428 24.1847 25.5783 22.7197 27.3441 21.2932C28.3159 20.5087 29.3495 19.8033 30.5519 19.4105C31.635 19.0561 32.6383 19.1716 33.4897 20.0083C33.7304 20.2449 33.7281 20.529 33.4785 20.7543C30.0323 23.8711 26.5861 26.9879 23.1342 30.0979C23.0375 30.1851 22.8688 30.2293 22.7338 30.2293C18.4565 30.2361 14.1791 30.2372 9.9017 30.2281C9.63851 30.2281 9.47767 30.313 9.31571 30.5123C8.54076 31.469 7.7512 32.412 6.96613 33.3596C6.91102 33.4242 6.85253 33.4842 6.7828 33.5612Z" fill="#006156"/>
<path d="M17 7.83091C17.0021 3.69267 20.3647 0.331713 24.5019 0.333314C28.639 0.334914 31.9995 3.69694 32 7.83518C32.0005 11.9692 28.6305 15.337 24.4976 15.3333C20.3583 15.3296 16.9979 11.9676 17 7.83091ZM26.8711 5.18376C26.4715 4.83219 26.0895 4.68228 24.9084 4.40274C24.8993 4.25123 24.8902 4.09545 24.8806 3.93327C24.672 3.93327 24.4843 3.93327 24.2895 3.93327C24.281 4.08478 24.2741 4.21548 24.2666 4.34619C24.2533 4.32538 24.2394 4.30511 24.2261 4.2843C23.7987 4.46249 23.3367 4.58572 22.9516 4.83006C21.9379 5.47344 21.9337 7.39345 23.2114 7.87839C23.5091 7.99149 23.8147 8.08378 24.1114 8.19848C24.177 8.22409 24.2687 8.30145 24.2703 8.35693C24.2821 8.90535 24.2773 9.45431 24.2773 10.0385C23.6216 9.92324 23.1068 9.59515 22.6192 9.2041C22.385 9.49699 22.17 9.7664 21.9475 10.0443C22.6277 10.6248 23.4146 10.9385 24.2847 11.0804C24.2847 11.3178 24.2847 11.52 24.2847 11.7339C24.4939 11.7339 24.6822 11.7339 24.9009 11.7339C24.9009 11.505 24.9009 11.2964 24.9009 11.0793C25.0332 11.0585 25.1372 11.0414 25.2413 11.0254C26.5392 10.8211 27.2002 9.92004 26.9522 8.69943C26.8028 7.96535 26.2464 7.65646 25.6227 7.41799C25.3864 7.3273 25.0428 7.31396 24.934 7.14538C24.8118 6.956 24.8977 6.6311 24.8961 6.36543C24.894 6.06934 24.8956 5.77273 24.8956 5.39715C25.4019 5.60415 25.8388 5.78286 26.2938 5.96905C26.4742 5.72365 26.6673 5.46064 26.8711 5.18376Z" fill="#006156"/>
<path d="M24.9179 8.3702C25.6296 8.52331 25.9529 8.80392 25.9204 9.22484C25.8868 9.6607 25.4882 9.98186 24.9179 10.0144C24.9179 9.47238 24.9179 8.93089 24.9179 8.3702Z" fill="#006156"/>
<path d="M24.266 5.4025C24.266 5.94506 24.266 6.47267 24.266 7.00029C23.6707 6.94267 23.3522 6.64712 23.3692 6.17179C23.3858 5.70926 23.7 5.42971 24.266 5.4025Z" fill="#006156"/>
</g>
<defs>
<clipPath id="clip0">
<rect width="33.3333" height="33.3333" fill="white" transform="translate(0.333984 0.333313)"/>
</clipPath>
</defs>
</svg>
